<?xml version="1.0" encoding="UTF-8"?> <svg xmlns="http://www.w3.org/2000/svg" xmlns:xlink="http://www.w3.org/1999/xlink" width="204px" height="24px" viewBox="0 0 204 24" version="1.1"><title>Group 38</title><g id="Page-1" stroke="none" stroke-width="1" fill="none" fill-rule="evenodd"><g id="PP-1600-US" transform="translate(-546.000000, -697.000000)"><g id="Group-7" transform="translate(201.000000, 118.000000)"><g id="Group-38" transform="translate(345.000000, 579.000000)"><polygon id="Rectangle" fill="#E7A700" points="3.47255558e-13 0 203.2 0 196.6 12 203.2 24 3.47255558e-13 24 6.6 12"></polygon><path d="M36.025,17.13 C37.845,17.13 39.158,15.895 39.158,14.179 C39.158,12.606 37.936,11.436 36.298,11.436 C35.726,11.436 35.193,11.579 34.777,11.865 C34.465,12.073 34.296,12.281 34.036,12.736 L34.036,12.359 C34.036,11.839 34.101,11.358 34.257,10.864 C34.569,9.811 35.115,9.343 36.012,9.343 C36.805,9.343 37.26,9.707 37.546,10.565 L38.872,10.305 C38.716,9.746 38.547,9.421 38.274,9.109 C37.767,8.537 36.883,8.199 35.96,8.199 C33.828,8.199 32.476,9.98 32.476,12.762 C32.476,15.453 33.841,17.13 36.025,17.13 Z M35.999,15.986 C34.998,15.986 34.309,15.323 34.309,14.335 C34.309,13.36 34.998,12.645 35.934,12.645 C36.948,12.645 37.663,13.373 37.663,14.4 C37.663,15.323 36.961,15.986 35.999,15.986 Z M43.383,17.13 C44.553,17.13 45.463,16.623 46.035,15.609 C46.516,14.803 46.763,13.815 46.763,12.736 C46.763,9.928 45.476,8.199 43.383,8.199 C42.369,8.199 41.615,8.589 40.965,9.46 C40.354,10.266 40.055,11.358 40.055,12.723 C40.055,15.453 41.329,17.13 43.383,17.13 Z M43.383,15.908 C42.187,15.908 41.641,14.868 41.641,12.619 C41.641,10.422 42.226,9.356 43.422,9.356 C44.137,9.356 44.566,9.694 44.852,10.474 C45.034,10.981 45.151,11.826 45.151,12.723 C45.151,14.881 44.579,15.908 43.383,15.908 Z M49.662,13.074 C50.832,13.074 51.716,12.06 51.716,10.708 C51.716,9.941 51.456,9.187 51.066,8.771 C50.741,8.446 50.234,8.251 49.675,8.251 C48.479,8.251 47.647,9.226 47.647,10.617 C47.647,12.06 48.479,13.074 49.662,13.074 Z M50.052,17 L55.421,8.329 L54.472,8.329 L49.09,17 L50.052,17 Z M49.662,12.138 C49.129,12.138 48.843,11.618 48.843,10.617 C48.843,9.655 49.129,9.174 49.701,9.174 C50.273,9.174 50.546,9.681 50.546,10.734 C50.546,11.631 50.221,12.138 49.662,12.138 Z M54.784,17.078 C56.019,17.078 56.851,16.116 56.851,14.686 C56.851,14.023 56.708,13.49 56.409,13.074 C56.045,12.554 55.46,12.242 54.862,12.242 C53.679,12.242 52.808,13.295 52.808,14.738 C52.808,16.103 53.627,17.078 54.784,17.078 Z M54.849,16.155 C54.277,16.155 53.991,15.674 53.991,14.673 C53.991,13.724 54.316,13.191 54.888,13.191 C55.421,13.191 55.694,13.659 55.694,14.608 C55.694,15.596 55.382,16.155 54.849,16.155 Z M64.651,17.13 C66.861,17.13 68.369,15.349 68.369,12.736 C68.369,9.98 66.939,8.199 64.716,8.199 C62.532,8.199 60.998,10.032 60.998,12.632 C60.998,13.88 61.336,14.998 61.96,15.843 C62.571,16.675 63.52,17.13 64.651,17.13 Z M64.664,15.869 C63.39,15.869 62.688,14.751 62.688,12.684 C62.688,11.761 62.844,10.929 63.143,10.357 C63.429,9.785 64.001,9.46 64.703,9.46 C66.016,9.46 66.679,10.578 66.679,12.762 C66.679,13.633 66.549,14.348 66.289,14.868 C65.99,15.466 65.353,15.869 64.664,15.869 Z M71.411,17 L71.411,13.347 L74.466,13.347 L74.466,12.047 L71.411,12.047 L71.411,9.668 L75.285,9.668 L75.285,8.329 L69.812,8.329 L69.812,17 L71.411,17 Z M78.015,17 L78.015,13.347 L81.07,13.347 L81.07,12.047 L78.015,12.047 L78.015,9.668 L81.889,9.668 L81.889,8.329 L76.416,8.329 L76.416,17 L78.015,17 Z M87.869,17 L87.869,13.347 L90.924,13.347 L90.924,12.047 L87.869,12.047 L87.869,9.668 L91.743,9.668 L91.743,8.329 L86.27,8.329 L86.27,17 L87.869,17 Z M96.072,17.13 C98.282,17.13 99.79,15.349 99.79,12.736 C99.79,9.98 98.36,8.199 96.137,8.199 C93.953,8.199 92.419,10.032 92.419,12.632 C92.419,13.88 92.757,14.998 93.381,15.843 C93.992,16.675 94.941,17.13 96.072,17.13 Z M96.085,15.869 C94.811,15.869 94.109,14.751 94.109,12.684 C94.109,11.761 94.265,10.929 94.564,10.357 C94.85,9.785 95.422,9.46 96.124,9.46 C97.437,9.46 98.1,10.578 98.1,12.762 C98.1,13.633 97.97,14.348 97.71,14.868 C97.411,15.466 96.774,15.869 96.085,15.869 Z M102.793,17 L102.793,13.438 L104.99,13.438 L106.342,17 L107.993,17 L106.472,13.178 C107.551,12.71 108.032,11.995 108.032,10.877 C108.032,10.084 107.759,9.447 107.252,9.005 C106.693,8.524 106.03,8.329 104.99,8.329 L101.233,8.329 L101.233,17 L102.793,17 Z M104.743,12.19 L102.793,12.19 L102.793,9.577 L104.873,9.577 C105.822,9.577 106.407,10.071 106.407,10.851 C106.407,11.709 105.809,12.19 104.743,12.19 Z M115.949,17.13 C117.769,17.13 119.082,15.895 119.082,14.179 C119.082,12.606 117.86,11.436 116.222,11.436 C115.65,11.436 115.117,11.579 114.701,11.865 C114.389,12.073 114.22,12.281 113.96,12.736 L113.96,12.359 C113.96,11.839 114.025,11.358 114.181,10.864 C114.493,9.811 115.039,9.343 115.936,9.343 C116.729,9.343 117.184,9.707 117.47,10.565 L118.796,10.305 C118.64,9.746 118.471,9.421 118.198,9.109 C117.691,8.537 116.807,8.199 115.884,8.199 C113.752,8.199 112.4,9.98 112.4,12.762 C112.4,15.453 113.765,17.13 115.949,17.13 Z M115.923,15.986 C114.922,15.986 114.233,15.323 114.233,14.335 C114.233,13.36 114.922,12.645 115.858,12.645 C116.872,12.645 117.587,13.373 117.587,14.4 C117.587,15.323 116.885,15.986 115.923,15.986 Z M124.997,17 L124.997,9.408 L127.402,17 L128.221,17 L130.626,9.408 L130.626,17 L132.225,17 L132.225,8.329 L129.768,8.329 L127.974,13.919 L126.167,8.329 L123.723,8.329 L123.723,17 L124.997,17 Z M137.334,17.13 C139.544,17.13 141.052,15.349 141.052,12.736 C141.052,9.98 139.622,8.199 137.399,8.199 C135.215,8.199 133.681,10.032 133.681,12.632 C133.681,13.88 134.019,14.998 134.643,15.843 C135.254,16.675 136.203,17.13 137.334,17.13 Z M137.347,15.869 C136.073,15.869 135.371,14.751 135.371,12.684 C135.371,11.761 135.527,10.929 135.826,10.357 C136.112,9.785 136.684,9.46 137.386,9.46 C138.699,9.46 139.362,10.578 139.362,12.762 C139.362,13.633 139.232,14.348 138.972,14.868 C138.673,15.466 138.036,15.869 137.347,15.869 Z M143.756,17 L143.756,10.526 C143.86,10.734 143.964,10.929 143.99,10.994 C144.107,11.228 144.185,11.397 144.224,11.462 L147.604,17 L149.034,17 L149.034,8.329 L147.799,8.329 L147.799,14.478 C147.695,14.283 147.617,14.127 147.513,13.919 C147.396,13.698 147.266,13.464 147.253,13.438 L144.224,8.329 L142.495,8.329 L142.495,17 L143.756,17 Z M153.974,17 L153.974,9.668 L156.275,9.668 L156.275,8.329 L149.996,8.329 L149.996,9.668 L152.297,9.668 L152.297,17 L153.974,17 Z M158.784,17 L158.784,13.23 L162.099,13.23 L162.099,17 L163.659,17 L163.659,8.329 L162.099,8.329 L162.099,11.891 L158.784,11.891 L158.784,8.329 L157.224,8.329 L157.224,17 L158.784,17 Z M168.183,17.13 C170.276,17.13 171.641,16.064 171.641,14.413 C171.641,13.88 171.498,13.412 171.225,13.009 C170.887,12.502 170.328,12.19 169.392,11.943 L167.91,11.579 C167.091,11.371 166.701,11.033 166.701,10.526 C166.701,9.876 167.286,9.46 168.183,9.46 C169.054,9.46 169.574,9.772 169.808,10.435 L171.29,10.071 C171.134,9.538 170.939,9.265 170.562,8.953 C169.938,8.459 169.106,8.199 168.17,8.199 C166.324,8.199 165.102,9.239 165.102,10.786 C165.102,11.345 165.271,11.852 165.609,12.281 C165.921,12.697 166.363,12.931 167.247,13.165 L168.911,13.594 C169.639,13.789 169.99,14.127 169.99,14.647 C169.99,15.401 169.327,15.869 168.274,15.869 C167.598,15.869 167.013,15.713 166.649,15.414 C166.402,15.219 166.285,15.024 166.155,14.582 L164.647,14.907 C164.868,15.609 165.089,15.96 165.518,16.311 C166.207,16.857 167.104,17.13 168.183,17.13 Z" id="60%OFFFOR6MONTHS" fill="#FFFFFF" fill-rule="nonzero"></path></g></g></g></g></svg> 