<?xml version="1.0" encoding="UTF-8"?> <svg xmlns="http://www.w3.org/2000/svg" xmlns:xlink="http://www.w3.org/1999/xlink" width="241px" height="63px" viewBox="0 0 241 63" version="1.1"><title>Group 9 Copy 3</title><defs><filter x="-5.4%" y="-27.1%" width="110.8%" height="154.2%" id="filter-1"><feOffset dx="2" dy="2" in="SourceAlpha" result="shadowOffsetOuter1"></feOffset><feGaussianBlur stdDeviation="2" in="shadowOffsetOuter1" result="shadowBlurOuter1"></feGaussianBlur><feColorMatrix values="0 0 0 0 0 0 0 0 0 0 0 0 0 0 0 0 0 0 0.148382867 0" type="matrix" in="shadowBlurOuter1" result="shadowMatrixOuter1"></feColorMatrix><feMerge><feMergeNode in="shadowMatrixOuter1"></feMergeNode><feMergeNode in="SourceGraphic"></feMergeNode></feMerge></filter><polygon id="path-2" points="0 0 222.48374 0 222.48374 44.297621 0 44.297621"></polygon></defs><g id="Page-1" stroke="none" stroke-width="1" fill="none" fill-rule="evenodd"><g id="Group-9-Copy-3" transform="translate(9.000000, 9.537203)"><g id="Group-3" filter="url(#filter-1)"><mask id="mask-3" fill="white"><use xlink:href="#path-2"></use></mask><g id="Clip-2"></g><path d="M9.15900124,0.484345451 C16.5015149,0.465221203 164.355756,1.31711954 175.864246,0.508685403 C187.372736,-0.299748733 210.389717,0.0410106021 216.666929,0.275717287 C222.942526,0.508685403 222.505107,14.2624971 222.461526,19.9267518 C222.41956,25.5892679 222.942526,45.0073342 202.543606,43.390466 C182.141458,41.7718591 84.3209035,41.961363 60.7809563,43.4843486 C37.2426231,45.0073342 15.7832431,44.042429 6.8460045,43.3974202 C0.397698878,42.9297454 -0.247938731,20.9559841 0.0619673212,15.881104 C0.423524382,10.0116983 3.40475604,0.5 9.15900124,0.484345451" id="Fill-1" fill="#0075DD" mask="url(#mask-3)"></path></g><g id="Tax-Time-Sale" transform="translate(48.522809, 13.983885)" fill="#FFF9E8" fill-rule="nonzero"><polygon id="Path" points="7.97332631 14.7094123 7.97332631 2.65777544 13.151406 2.65777544 13.151406 0.274942286 0 0.274942286 0 2.65777544 5.10934416 2.65777544 5.10934416 14.7094123"></polygon><path d="M18.7361712,10.3332476 C18.7361712,11.9599895 17.6364021,13.0597586 16.1929551,13.0597586 C15.3223045,13.0597586 14.7953318,12.6473452 14.7953318,11.9599895 C14.7953318,10.9518677 15.6430705,10.745661 16.8344871,10.4936306 L18.7361712,10.0812172 L18.7361712,10.3332476 Z M21.4168585,8.22535674 C21.4168585,5.5675813 19.6984692,4.33034101 17.0865175,4.33034101 C14.4058302,4.33034101 12.8249121,5.77378801 12.4812342,7.83585516 L14.9786266,8.06497373 C15.2077452,7.07976388 15.8263654,6.39240816 16.9719582,6.39240816 C18.1404629,6.39240816 18.7361712,7.07976388 18.7361712,8.20244488 L18.7361712,8.43156345 L15.9638365,8.98144802 C13.6726508,9.43968517 12.1146445,10.2416002 12.1146445,12.1661962 C12.1146445,13.9074973 13.3977085,14.9614428 15.5055994,14.9614428 C16.9948701,14.9614428 18.3695815,14.3428226 18.9423779,13.1743179 C19.1944084,14.274087 19.9275878,14.9385309 21.0731807,14.9385309 C21.9896549,14.9385309 22.5395395,14.6406768 22.9748648,14.2969989 L22.9748648,12.83064 C22.6770107,12.9681112 22.4020684,13.0368467 22.1271261,13.0368467 C21.6918008,13.0368467 21.4168585,12.7848163 21.4168585,12.2578436 L21.4168585,8.22535674 Z" id="Shape"></path><polygon id="Path" points="33.7606216 4.6052833 30.8737276 4.6052833 28.6512774 7.58382473 26.4517391 4.6052833 23.3586384 4.6052833 27.0932711 9.5313326 23.0378724 14.7094123 25.9247664 14.7094123 28.4908944 11.3413693 31.0570224 14.7094123 34.173035 14.7094123 30.0489007 9.41677331"></polygon><polygon id="Path" points="46.5798057 14.7094123 46.5798057 2.65777544 51.7578854 2.65777544 51.7578854 0.274942286 38.6064793 0.274942286 38.6064793 2.65777544 43.7158235 2.65777544 43.7158235 14.7094123"></polygon><path d="M53.3101637,4.6052833 L53.3101637,14.7094123 L56.0595866,14.7094123 L56.0595866,4.6052833 L53.3101637,4.6052833 Z M53.26434,2.95562958 L56.0824984,2.95562958 L56.0824984,0.274942286 L53.26434,0.274942286 L53.26434,2.95562958 Z" id="Shape"></path><path d="M67.3952279,6.41532002 C66.9599026,5.17807973 65.9517809,4.33034101 64.164656,4.33034101 C62.6295616,4.33034101 61.4839687,5.10934416 60.9799079,6.25493702 L60.9799079,4.6052833 L58.230485,4.6052833 L58.230485,14.7094123 L60.9799079,14.7094123 L60.9799079,9.30221402 C60.9799079,7.60673659 61.7818229,6.50696745 63.1107106,6.50696745 C64.4395983,6.50696745 64.9436592,7.40052988 64.9436592,8.95853617 L64.9436592,14.7094123 L67.693082,14.7094123 L67.693082,9.30221402 C67.693082,7.60673659 68.494997,6.50696745 69.8238848,6.50696745 C71.1756843,6.50696745 71.6568333,7.40052988 71.6568333,8.95853617 L71.6568333,14.7094123 L74.4062562,14.7094123 L74.4062562,8.40865159 C74.4062562,6.2091133 73.5356056,4.33034101 70.8090946,4.33034101 C69.1594409,4.33034101 67.9451125,5.22390344 67.3952279,6.41532002 Z" id="Path"></path><path d="M83.8631253,11.1809863 C83.4736237,12.3265792 82.6717087,12.8993756 81.3199091,12.8993756 C79.8306384,12.8993756 78.6621337,11.8454302 78.5704862,10.3561595 L86.154311,10.3561595 L86.154311,9.3709496 C86.154311,6.62152673 84.4588335,4.33034101 81.1595261,4.33034101 C78.135161,4.33034101 75.8668871,6.62152673 75.8668871,9.80627488 C75.8668871,12.991023 78.1122491,14.9843546 81.2282617,14.9843546 C83.8173015,14.9843546 85.5586027,13.6554669 86.0855754,11.4101049 L83.8631253,11.1809863 Z M78.61631,8.63777016 C78.8683404,7.37761802 79.6244317,6.34658444 81.1366142,6.34658444 C82.6717087,6.34658444 83.3819763,7.46926545 83.4736237,8.63777016 L78.61631,8.63777016 Z" id="Shape"></path><path d="M91.0689043,9.57715631 C91.0689043,13.0597586 93.7495916,14.9843546 97.4613125,14.9843546 C100.714796,14.9843546 103.166365,13.4492602 103.166365,10.6081899 C103.166365,8.27118045 101.837477,6.91938087 98.9964069,6.39240816 L96.3386315,5.91125916 C95.0326556,5.65922873 94.2765643,5.29263901 94.2765643,4.23869358 C94.2765643,3.00145329 95.2388623,2.24536201 96.9343398,2.24536201 C98.9047595,2.24536201 100.187823,3.27639558 100.279471,5.2468153 L102.914334,5.15516787 C102.868511,1.94750786 100.737708,0 96.9572516,0 C93.5892086,0 91.4584059,1.74130115 91.4584059,4.4449003 C91.4584059,6.82773345 93.0164122,8.06497373 95.2617742,8.47738716 L98.0111971,8.98144802 C99.5233796,9.27930217 100.39403,9.6917156 100.39403,10.7914847 C100.39403,12.0058132 99.2484373,12.7160807 97.4613125,12.7160807 C95.445069,12.7160807 93.8183272,11.707959 93.7037679,9.46259702 L91.0689043,9.57715631 Z" id="Path"></path><path d="M111.019404,10.3332476 C111.019404,11.9599895 109.919635,13.0597586 108.476188,13.0597586 C107.605537,13.0597586 107.078565,12.6473452 107.078565,11.9599895 C107.078565,10.9518677 107.926303,10.745661 109.11772,10.4936306 L111.019404,10.0812172 L111.019404,10.3332476 Z M113.700091,8.22535674 C113.700091,5.5675813 111.981702,4.33034101 109.36975,4.33034101 C106.689063,4.33034101 105.108145,5.77378801 104.764467,7.83585516 L107.261859,8.06497373 C107.490978,7.07976388 108.109598,6.39240816 109.255191,6.39240816 C110.423696,6.39240816 111.019404,7.07976388 111.019404,8.20244488 L111.019404,8.43156345 L108.247069,8.98144802 C105.955884,9.43968517 104.397877,10.2416002 104.397877,12.1661962 C104.397877,13.9074973 105.680941,14.9614428 107.788832,14.9614428 C109.278103,14.9614428 110.652814,14.3428226 111.225611,13.1743179 C111.477641,14.274087 112.210821,14.9385309 113.356413,14.9385309 C114.272888,14.9385309 114.822772,14.6406768 115.258098,14.2969989 L115.258098,12.83064 C114.960243,12.9681112 114.685301,13.0368467 114.410359,13.0368467 C113.975034,13.0368467 113.700091,12.7848163 113.700091,12.2578436 L113.700091,8.22535674 Z" id="Shape"></path><polygon id="Path" points="116.420874 0.274942286 116.420874 14.7094123 119.170297 14.7094123 119.170297 0.274942286"></polygon><path d="M128.741725,11.1809863 C128.352224,12.3265792 127.550309,12.8993756 126.198509,12.8993756 C124.709239,12.8993756 123.540734,11.8454302 123.449086,10.3561595 L131.032911,10.3561595 L131.032911,9.3709496 C131.032911,6.62152673 129.337434,4.33034101 126.038126,4.33034101 C123.013761,4.33034101 120.745487,6.62152673 120.745487,9.80627488 C120.745487,12.991023 122.990849,14.9843546 126.106862,14.9843546 C128.695902,14.9843546 130.437203,13.6554669 130.964176,11.4101049 L128.741725,11.1809863 Z M123.49491,8.63777016 C123.746941,7.37761802 124.503032,6.34658444 126.015214,6.34658444 C127.550309,6.34658444 128.260576,7.46926545 128.352224,8.63777016 L123.49491,8.63777016 Z" id="Shape"></path></g></g></g></svg> 